<mxfile host="app.diagrams.net" modified="2023-03-25T12:59:32.955Z" agent="Mozilla/5.0 (Windows NT 10.0; Win64; x64) AppleWebKit/537.36 (KHTML, like Gecko) Chrome/111.0.0.0 Safari/537.36" etag="aLMR-Biv0q3jPmZC_l6C" version="21.1.1" type="device">
  <diagram name="Page-1" id="sGzxX93xdV-w-MH2Fxeq">
    <mxGraphModel dx="989" dy="610" grid="1" gridSize="10" guides="1" tooltips="1" connect="1" arrows="1" fold="1" page="1" pageScale="1" pageWidth="1169" pageHeight="827" math="0" shadow="0">
      <root>
        <mxCell id="0" />
        <mxCell id="1" parent="0" />
        <mxCell id="5-P8dXUu2r8xgCgaxNXc-20" value="" style="group;strokeColor=none;" vertex="1" connectable="0" parent="1">
          <mxGeometry x="170" y="370" width="120" height="120" as="geometry" />
        </mxCell>
        <mxCell id="5-P8dXUu2r8xgCgaxNXc-19" value="" style="rounded=0;whiteSpace=wrap;html=1;strokeColor=none;" vertex="1" parent="5-P8dXUu2r8xgCgaxNXc-20">
          <mxGeometry width="120" height="120" as="geometry" />
        </mxCell>
        <mxCell id="5-P8dXUu2r8xgCgaxNXc-9" value="Client" style="image;aspect=fixed;perimeter=ellipsePerimeter;html=1;align=center;shadow=0;dashed=0;spacingTop=3;image=img/lib/active_directory/laptop_client.svg;" vertex="1" parent="5-P8dXUu2r8xgCgaxNXc-20">
          <mxGeometry x="28.5" y="20" width="63" height="70" as="geometry" />
        </mxCell>
        <mxCell id="5-P8dXUu2r8xgCgaxNXc-28" value="" style="group" vertex="1" connectable="0" parent="1">
          <mxGeometry x="440" y="180" width="120" height="120" as="geometry" />
        </mxCell>
        <mxCell id="5-P8dXUu2r8xgCgaxNXc-26" value="" style="rounded=0;whiteSpace=wrap;html=1;strokeColor=none;" vertex="1" parent="5-P8dXUu2r8xgCgaxNXc-28">
          <mxGeometry width="120" height="120" as="geometry" />
        </mxCell>
        <mxCell id="5-P8dXUu2r8xgCgaxNXc-4" value="Web Server" style="image;aspect=fixed;perimeter=ellipsePerimeter;html=1;align=center;shadow=0;dashed=0;spacingTop=3;image=img/lib/active_directory/web_server.svg;" vertex="1" parent="5-P8dXUu2r8xgCgaxNXc-28">
          <mxGeometry x="32" y="10" width="56" height="70" as="geometry" />
        </mxCell>
        <mxCell id="5-P8dXUu2r8xgCgaxNXc-29" style="edgeStyle=orthogonalEdgeStyle;rounded=0;orthogonalLoop=1;jettySize=auto;html=1;endArrow=open;endFill=0;" edge="1" parent="1" source="5-P8dXUu2r8xgCgaxNXc-26" target="5-P8dXUu2r8xgCgaxNXc-19">
          <mxGeometry relative="1" as="geometry">
            <Array as="points">
              <mxPoint x="250" y="250" />
            </Array>
          </mxGeometry>
        </mxCell>
        <mxCell id="5-P8dXUu2r8xgCgaxNXc-33" value="Serve Static Files" style="edgeLabel;html=1;align=center;verticalAlign=middle;resizable=0;points=[];" vertex="1" connectable="0" parent="5-P8dXUu2r8xgCgaxNXc-29">
          <mxGeometry x="-0.1248" y="-1" relative="1" as="geometry">
            <mxPoint y="11" as="offset" />
          </mxGeometry>
        </mxCell>
        <mxCell id="5-P8dXUu2r8xgCgaxNXc-30" style="edgeStyle=orthogonalEdgeStyle;rounded=0;orthogonalLoop=1;jettySize=auto;html=1;endArrow=open;endFill=0;" edge="1" parent="1" source="5-P8dXUu2r8xgCgaxNXc-19" target="5-P8dXUu2r8xgCgaxNXc-26">
          <mxGeometry relative="1" as="geometry">
            <Array as="points">
              <mxPoint x="220" y="220" />
            </Array>
          </mxGeometry>
        </mxCell>
        <mxCell id="5-P8dXUu2r8xgCgaxNXc-32" value="Request Web Page" style="edgeLabel;html=1;align=center;verticalAlign=middle;resizable=0;points=[];" vertex="1" connectable="0" parent="5-P8dXUu2r8xgCgaxNXc-30">
          <mxGeometry x="0.6658" relative="1" as="geometry">
            <mxPoint x="-68" y="-10" as="offset" />
          </mxGeometry>
        </mxCell>
        <mxCell id="5-P8dXUu2r8xgCgaxNXc-41" style="edgeStyle=orthogonalEdgeStyle;rounded=0;orthogonalLoop=1;jettySize=auto;html=1;startArrow=open;startFill=0;endArrow=open;endFill=0;" edge="1" parent="1" source="5-P8dXUu2r8xgCgaxNXc-34" target="5-P8dXUu2r8xgCgaxNXc-38">
          <mxGeometry relative="1" as="geometry" />
        </mxCell>
        <mxCell id="5-P8dXUu2r8xgCgaxNXc-42" value="Query Communication" style="edgeLabel;html=1;align=center;verticalAlign=middle;resizable=0;points=[];" vertex="1" connectable="0" parent="5-P8dXUu2r8xgCgaxNXc-41">
          <mxGeometry x="0.3325" y="-1" relative="1" as="geometry">
            <mxPoint x="-20" y="-11" as="offset" />
          </mxGeometry>
        </mxCell>
        <mxCell id="5-P8dXUu2r8xgCgaxNXc-40" value="" style="group" vertex="1" connectable="0" parent="1">
          <mxGeometry x="950" y="370" width="120" height="120" as="geometry" />
        </mxCell>
        <mxCell id="5-P8dXUu2r8xgCgaxNXc-38" value="" style="rounded=0;whiteSpace=wrap;html=1;strokeColor=none;" vertex="1" parent="5-P8dXUu2r8xgCgaxNXc-40">
          <mxGeometry width="120" height="120" as="geometry" />
        </mxCell>
        <mxCell id="5-P8dXUu2r8xgCgaxNXc-2" value="SQL Server" style="image;aspect=fixed;perimeter=ellipsePerimeter;html=1;align=center;shadow=0;dashed=0;spacingTop=3;image=img/lib/active_directory/sql_server.svg;" vertex="1" parent="5-P8dXUu2r8xgCgaxNXc-40">
          <mxGeometry x="31.129999999999995" y="20" width="57.75" height="75" as="geometry" />
        </mxCell>
        <mxCell id="5-P8dXUu2r8xgCgaxNXc-48" style="edgeStyle=orthogonalEdgeStyle;rounded=0;orthogonalLoop=1;jettySize=auto;html=1;endArrow=open;endFill=0;" edge="1" parent="1" source="5-P8dXUu2r8xgCgaxNXc-43" target="5-P8dXUu2r8xgCgaxNXc-19">
          <mxGeometry relative="1" as="geometry">
            <Array as="points">
              <mxPoint x="340" y="440" />
              <mxPoint x="340" y="440" />
            </Array>
          </mxGeometry>
        </mxCell>
        <mxCell id="5-P8dXUu2r8xgCgaxNXc-52" value="JSON Response" style="edgeLabel;html=1;align=center;verticalAlign=middle;resizable=0;points=[];" vertex="1" connectable="0" parent="5-P8dXUu2r8xgCgaxNXc-48">
          <mxGeometry x="0.2604" y="2" relative="1" as="geometry">
            <mxPoint x="14" y="8" as="offset" />
          </mxGeometry>
        </mxCell>
        <mxCell id="5-P8dXUu2r8xgCgaxNXc-46" style="edgeStyle=orthogonalEdgeStyle;rounded=0;orthogonalLoop=1;jettySize=auto;html=1;endArrow=open;endFill=0;startArrow=none;startFill=0;" edge="1" parent="1" source="5-P8dXUu2r8xgCgaxNXc-19" target="5-P8dXUu2r8xgCgaxNXc-43">
          <mxGeometry relative="1" as="geometry">
            <Array as="points">
              <mxPoint x="340" y="420" />
              <mxPoint x="340" y="420" />
            </Array>
          </mxGeometry>
        </mxCell>
        <mxCell id="5-P8dXUu2r8xgCgaxNXc-49" value="AJAX Request" style="edgeLabel;html=1;align=center;verticalAlign=middle;resizable=0;points=[];" vertex="1" connectable="0" parent="5-P8dXUu2r8xgCgaxNXc-46">
          <mxGeometry x="-0.2271" y="1" relative="1" as="geometry">
            <mxPoint x="10" y="-9" as="offset" />
          </mxGeometry>
        </mxCell>
        <mxCell id="5-P8dXUu2r8xgCgaxNXc-50" value="" style="group" vertex="1" connectable="0" parent="1">
          <mxGeometry x="420" y="340" width="400" height="180" as="geometry" />
        </mxCell>
        <mxCell id="5-P8dXUu2r8xgCgaxNXc-17" value="REST API Backend" style="shape=umlFrame;whiteSpace=wrap;html=1;pointerEvents=0;width=100;height=30;dashed=1;" vertex="1" parent="5-P8dXUu2r8xgCgaxNXc-50">
          <mxGeometry width="400" height="180" as="geometry" />
        </mxCell>
        <mxCell id="5-P8dXUu2r8xgCgaxNXc-34" value="Services&lt;br&gt;and&amp;nbsp;&lt;br&gt;Business Logic" style="ellipse;shape=cloud;whiteSpace=wrap;html=1;fillColor=#fff2cc;strokeColor=#d6b656;" vertex="1" parent="5-P8dXUu2r8xgCgaxNXc-50">
          <mxGeometry x="230" y="15" width="150" height="150" as="geometry" />
        </mxCell>
        <mxCell id="5-P8dXUu2r8xgCgaxNXc-43" value="Gateway" style="ellipse;whiteSpace=wrap;html=1;fillColor=#f8cecc;strokeColor=#b85450;" vertex="1" parent="5-P8dXUu2r8xgCgaxNXc-50">
          <mxGeometry x="30" y="50" width="120" height="80" as="geometry" />
        </mxCell>
        <mxCell id="5-P8dXUu2r8xgCgaxNXc-44" style="edgeStyle=orthogonalEdgeStyle;rounded=0;orthogonalLoop=1;jettySize=auto;html=1;endArrow=open;endFill=0;startArrow=open;startFill=0;" edge="1" parent="5-P8dXUu2r8xgCgaxNXc-50" source="5-P8dXUu2r8xgCgaxNXc-43" target="5-P8dXUu2r8xgCgaxNXc-34">
          <mxGeometry relative="1" as="geometry" />
        </mxCell>
        <mxCell id="5-P8dXUu2r8xgCgaxNXc-45" value="Call Services" style="edgeLabel;html=1;align=center;verticalAlign=middle;resizable=0;points=[];" vertex="1" connectable="0" parent="5-P8dXUu2r8xgCgaxNXc-44">
          <mxGeometry x="-0.281" y="-2" relative="1" as="geometry">
            <mxPoint x="9" y="-12" as="offset" />
          </mxGeometry>
        </mxCell>
      </root>
    </mxGraphModel>
  </diagram>
</mxfile>
